<svg width="178" height="43" viewBox="0 0 178 43" fill="none" xmlns="http://www.w3.org/2000/svg">
<path d="M25.488 0.707999V4.704H7.56V10.968H22.248V14.712H7.56V24H2.772V0.707999H25.488ZM41.6523 24.468C39.4923 24.468 37.5363 24.216 35.7843 23.712C34.0563 23.208 32.5563 22.452 31.2843 21.444C30.0363 20.436 29.0763 19.188 28.4043 17.7C27.7323 16.212 27.3963 14.496 27.3963 12.552C27.3963 10.584 27.7443 8.844 28.4403 7.332C29.1603 5.796 30.1683 4.5 31.4643 3.444C32.7843 2.388 34.3443 1.596 36.1443 1.068C37.9683 0.515999 39.9843 0.239999 42.1923 0.239999C44.8083 0.239999 47.0643 0.611999 48.9603 1.356C50.8563 2.076 52.3443 3.096 53.4243 4.416C54.5283 5.736 55.1523 7.308 55.2963 9.132H50.6883C50.3763 8.172 49.8603 7.344 49.1403 6.648C48.4443 5.928 47.5203 5.376 46.3683 4.992C45.2163 4.584 43.8243 4.38 42.1923 4.38C40.1043 4.38 38.3163 4.716 36.8283 5.388C35.3643 6.06 34.2483 7.008 33.4803 8.232C32.7123 9.456 32.3283 10.896 32.3283 12.552C32.3283 14.16 32.6643 15.552 33.3363 16.728C34.0083 17.88 35.0403 18.768 36.4323 19.392C37.8483 20.016 39.6483 20.328 41.8323 20.328C43.5123 20.328 44.9883 20.112 46.2603 19.68C47.5563 19.224 48.6363 18.624 49.5003 17.88C50.3643 17.112 50.9763 16.26 51.3363 15.324L53.2083 14.64C52.8963 17.736 51.7203 20.148 49.6803 21.876C47.6643 23.604 44.9883 24.468 41.6523 24.468ZM51.9843 24C51.9843 23.256 52.0323 22.404 52.1283 21.444C52.2243 20.46 52.3443 19.476 52.4883 18.492C52.6323 17.484 52.7643 16.56 52.8843 15.72H42.2283V12.66H56.1243V24H51.9843ZM74.5585 24.468C72.3985 24.468 70.4425 24.216 68.6905 23.712C66.9625 23.208 65.4625 22.452 64.1905 21.444C62.9425 20.436 61.9825 19.188 61.3105 17.7C60.6385 16.212 60.3025 14.496 60.3025 12.552C60.3025 10.584 60.6505 8.844 61.3465 7.332C62.0665 5.796 63.0745 4.5 64.3705 3.444C65.6905 2.388 67.2505 1.596 69.0505 1.068C70.8745 0.515999 72.8905 0.239999 75.0985 0.239999C77.7145 0.239999 79.9705 0.611999 81.8665 1.356C83.7625 2.076 85.2505 3.096 86.3305 4.416C87.4345 5.736 88.0585 7.308 88.2025 9.132H83.5945C83.2825 8.172 82.7665 7.344 82.0465 6.648C81.3505 5.928 80.4265 5.376 79.2745 4.992C78.1225 4.584 76.7305 4.38 75.0985 4.38C73.0105 4.38 71.2225 4.716 69.7345 5.388C68.2705 6.06 67.1545 7.008 66.3865 8.232C65.6185 9.456 65.2345 10.896 65.2345 12.552C65.2345 14.16 65.5705 15.552 66.2425 16.728C66.9145 17.88 67.9465 18.768 69.3385 19.392C70.7545 20.016 72.5545 20.328 74.7385 20.328C76.4185 20.328 77.8945 20.112 79.1665 19.68C80.4625 19.224 81.5425 18.624 82.4065 17.88C83.2705 17.112 83.8825 16.26 84.2425 15.324L86.1145 14.64C85.8025 17.736 84.6265 20.148 82.5865 21.876C80.5705 23.604 77.8945 24.468 74.5585 24.468ZM84.8905 24C84.8905 23.256 84.9385 22.404 85.0345 21.444C85.1305 20.46 85.2505 19.476 85.3945 18.492C85.5385 17.484 85.6705 16.56 85.7905 15.72H75.1345V12.66H89.0305V24H84.8905Z" fill="url(#paint0_linear_45_108)"/>
<path d="M0.325 33.656H5.525V34.943H0.325V33.656ZM4.277 30.939H5.616V32.304H4.68C4.42867 32.2953 4.212 32.3213 4.03 32.382C3.848 32.4427 3.70933 32.5553 3.614 32.72C3.51867 32.876 3.471 33.1013 3.471 33.396V40H1.781V33.188C1.781 32.668 1.87633 32.2433 2.067 31.914C2.25767 31.576 2.53933 31.329 2.912 31.173C3.28467 31.017 3.73967 30.939 4.277 30.939ZM14.0568 40H12.3668V33.539H14.0568V40ZM12.4578 36.893L12.4708 37.335C12.4534 37.4563 12.4101 37.634 12.3408 37.868C12.2714 38.0933 12.1631 38.336 12.0158 38.596C11.8771 38.856 11.6951 39.1073 11.4698 39.35C11.2444 39.584 10.9671 39.779 10.6378 39.935C10.3084 40.0823 9.91842 40.156 9.46776 40.156C9.11242 40.156 8.76142 40.1127 8.41476 40.026C8.07676 39.9393 7.76909 39.7963 7.49176 39.597C7.21442 39.389 6.99342 39.1117 6.82876 38.765C6.66409 38.4183 6.58176 37.9807 6.58176 37.452V33.539H8.27176V37.166C8.27176 37.582 8.33676 37.9113 8.46676 38.154C8.60542 38.388 8.80476 38.5527 9.06476 38.648C9.32476 38.7433 9.63242 38.791 9.98776 38.791C10.4558 38.791 10.8588 38.6913 11.1968 38.492C11.5348 38.284 11.8078 38.0327 12.0158 37.738C12.2324 37.4433 12.3798 37.1617 12.4578 36.893ZM15.5954 33.539H17.2854V40H15.5954V33.539ZM20.2884 33.396C20.6871 33.396 21.0554 33.448 21.3934 33.552C21.7314 33.656 22.0261 33.8163 22.2774 34.033C22.5288 34.2497 22.7238 34.527 22.8624 34.865C23.0011 35.1943 23.0704 35.5887 23.0704 36.048V40H21.3804V36.347C21.3804 35.801 21.2461 35.4023 20.9774 35.151C20.7174 34.891 20.2884 34.761 19.6904 34.761C19.2398 34.761 18.8324 34.8477 18.4684 35.021C18.1044 35.1943 17.8098 35.4153 17.5844 35.684C17.3591 35.944 17.2291 36.217 17.1944 36.503L17.1814 35.84C17.2248 35.5367 17.3244 35.242 17.4804 34.956C17.6364 34.67 17.8444 34.41 18.1044 34.176C18.3731 33.9333 18.6894 33.7427 19.0534 33.604C19.4174 33.4653 19.8291 33.396 20.2884 33.396ZM32.2791 37.452C32.2358 38.0153 32.0538 38.5007 31.7331 38.908C31.4211 39.3153 30.9878 39.6273 30.4331 39.844C29.8784 40.052 29.2198 40.156 28.4571 40.156C27.6598 40.156 26.9448 40.0303 26.3121 39.779C25.6881 39.519 25.1941 39.142 24.8301 38.648C24.4748 38.1453 24.2971 37.5257 24.2971 36.789C24.2971 36.0523 24.4748 35.4327 24.8301 34.93C25.1941 34.4273 25.6881 34.046 26.3121 33.786C26.9448 33.526 27.6598 33.396 28.4571 33.396C29.2198 33.396 29.8741 33.5043 30.4201 33.721C30.9661 33.929 31.3951 34.2323 31.7071 34.631C32.0278 35.0297 32.2141 35.5107 32.2661 36.074H30.7191C30.5718 35.6407 30.2988 35.3027 29.9001 35.06C29.5014 34.8173 29.0204 34.696 28.4571 34.696C28.0064 34.696 27.5948 34.774 27.2221 34.93C26.8581 35.086 26.5634 35.32 26.3381 35.632C26.1214 35.9353 26.0131 36.321 26.0131 36.789C26.0131 37.2483 26.1214 37.634 26.3381 37.946C26.5548 38.2493 26.8494 38.479 27.2221 38.635C27.5948 38.7823 28.0064 38.856 28.4571 38.856C29.0638 38.856 29.5578 38.7347 29.9391 38.492C30.3291 38.2493 30.5934 37.9027 30.7321 37.452H32.2791ZM33.0662 33.539H38.0842V34.852H33.0662V33.539ZM34.7302 31.771H36.4202V40H34.7302V31.771ZM41.0949 30.705V32.187H39.1319V30.705H41.0949ZM39.2619 33.539H40.9519V40H39.2619V33.539ZM46.4454 40.156C45.6308 40.156 44.9114 40.026 44.2874 39.766C43.6721 39.506 43.1911 39.129 42.8444 38.635C42.4978 38.1323 42.3244 37.517 42.3244 36.789C42.3244 36.061 42.4978 35.4457 42.8444 34.943C43.1911 34.4317 43.6721 34.046 44.2874 33.786C44.9114 33.526 45.6308 33.396 46.4454 33.396C47.2601 33.396 47.9708 33.526 48.5774 33.786C49.1928 34.046 49.6738 34.4317 50.0204 34.943C50.3671 35.4457 50.5404 36.061 50.5404 36.789C50.5404 37.517 50.3671 38.1323 50.0204 38.635C49.6738 39.129 49.1928 39.506 48.5774 39.766C47.9708 40.026 47.2601 40.156 46.4454 40.156ZM46.4454 38.856C46.8961 38.856 47.2991 38.778 47.6544 38.622C48.0184 38.4573 48.3044 38.2233 48.5124 37.92C48.7204 37.608 48.8244 37.231 48.8244 36.789C48.8244 36.347 48.7204 35.97 48.5124 35.658C48.3044 35.3373 48.0228 35.0947 47.6674 34.93C47.3121 34.7653 46.9048 34.683 46.4454 34.683C45.9948 34.683 45.5874 34.7653 45.2234 34.93C44.8594 35.0947 44.5691 35.333 44.3524 35.645C44.1444 35.957 44.0404 36.3383 44.0404 36.789C44.0404 37.231 44.1444 37.608 44.3524 37.92C44.5604 38.2233 44.8464 38.4573 45.2104 38.622C45.5744 38.778 45.9861 38.856 46.4454 38.856ZM51.7898 33.539H53.4798V40H51.7898V33.539ZM56.4828 33.396C56.8814 33.396 57.2498 33.448 57.5878 33.552C57.9258 33.656 58.2204 33.8163 58.4718 34.033C58.7231 34.2497 58.9181 34.527 59.0568 34.865C59.1954 35.1943 59.2648 35.5887 59.2648 36.048V40H57.5748V36.347C57.5748 35.801 57.4404 35.4023 57.1718 35.151C56.9118 34.891 56.4828 34.761 55.8848 34.761C55.4341 34.761 55.0268 34.8477 54.6628 35.021C54.2988 35.1943 54.0041 35.4153 53.7788 35.684C53.5534 35.944 53.4234 36.217 53.3888 36.503L53.3758 35.84C53.4191 35.5367 53.5188 35.242 53.6748 34.956C53.8308 34.67 54.0388 34.41 54.2988 34.176C54.5674 33.9333 54.8838 33.7427 55.2478 33.604C55.6118 33.4653 56.0234 33.396 56.4828 33.396ZM67.1632 39.012C66.4612 39.012 65.8415 38.908 65.3042 38.7C64.7755 38.4833 64.3638 38.167 64.0692 37.751C63.7745 37.335 63.6272 36.8323 63.6272 36.243C63.6272 35.6623 63.7702 35.1597 64.0562 34.735C64.3422 34.3103 64.7495 33.981 65.2782 33.747C65.8155 33.513 66.4438 33.396 67.1632 33.396C67.3625 33.396 67.5532 33.409 67.7352 33.435C67.9258 33.461 68.1122 33.4957 68.2942 33.539L71.5572 33.552V34.826C71.1152 34.8347 70.6645 34.7827 70.2052 34.67C69.7545 34.5487 69.3558 34.4187 69.0092 34.28L68.9702 34.189C69.2648 34.3277 69.5422 34.501 69.8022 34.709C70.0622 34.9083 70.2702 35.1423 70.4262 35.411C70.5908 35.671 70.6732 35.9743 70.6732 36.321C70.6732 36.8843 70.5302 37.3697 70.2442 37.777C69.9582 38.1757 69.5508 38.4833 69.0222 38.7C68.5022 38.908 67.8825 39.012 67.1632 39.012ZM69.3342 42.665V42.353C69.3342 41.9543 69.2042 41.677 68.9442 41.521C68.6928 41.365 68.3462 41.287 67.9042 41.287H65.8892C65.4992 41.287 65.1698 41.2567 64.9012 41.196C64.6412 41.1353 64.4332 41.0487 64.2772 40.936C64.1212 40.8233 64.0085 40.689 63.9392 40.533C63.8698 40.3857 63.8352 40.2253 63.8352 40.052C63.8352 39.7053 63.9478 39.4453 64.1732 39.272C64.3985 39.09 64.7018 38.9687 65.0832 38.908C65.4645 38.8473 65.8848 38.8343 66.3442 38.869L67.1632 39.012C66.6172 39.0293 66.2098 39.077 65.9412 39.155C65.6812 39.2243 65.5512 39.3673 65.5512 39.584C65.5512 39.714 65.6032 39.818 65.7072 39.896C65.8112 39.9653 65.9585 40 66.1492 40H68.2682C68.8488 40 69.3428 40.0607 69.7502 40.182C70.1662 40.312 70.4825 40.5243 70.6992 40.819C70.9158 41.1223 71.0242 41.534 71.0242 42.054V42.665H69.3342ZM67.1632 37.79C67.5358 37.79 67.8608 37.7293 68.1382 37.608C68.4242 37.4867 68.6452 37.3133 68.8012 37.088C68.9572 36.854 69.0352 36.5767 69.0352 36.256C69.0352 35.9267 68.9572 35.645 68.8012 35.411C68.6452 35.177 68.4285 34.9993 68.1512 34.878C67.8738 34.748 67.5445 34.683 67.1632 34.683C66.7905 34.683 66.4612 34.748 66.1752 34.878C65.8892 34.9993 65.6682 35.177 65.5122 35.411C65.3562 35.645 65.2782 35.9267 65.2782 36.256C65.2782 36.5767 65.3562 36.854 65.5122 37.088C65.6682 37.3133 65.8848 37.4867 66.1622 37.608C66.4482 37.7293 66.7818 37.79 67.1632 37.79ZM72.6609 33.539H74.3509V40H72.6609V33.539ZM76.8339 34.93C76.3485 34.93 75.9282 35.0253 75.5729 35.216C75.2175 35.398 74.9315 35.6233 74.7149 35.892C74.4982 36.1607 74.3465 36.4207 74.2599 36.672L74.2469 35.957C74.2555 35.853 74.2902 35.7013 74.3509 35.502C74.4115 35.294 74.5025 35.073 74.6239 34.839C74.7452 34.5963 74.9055 34.3667 75.1049 34.15C75.3042 33.9247 75.5469 33.7427 75.8329 33.604C76.1189 33.4653 76.4525 33.396 76.8339 33.396V34.93ZM81.0246 40.143C80.3833 40.143 79.7983 40.0043 79.2696 39.727C78.7496 39.441 78.3336 39.0467 78.0216 38.544C77.7183 38.0327 77.5666 37.4433 77.5666 36.776C77.5666 36.0913 77.7226 35.4977 78.0346 34.995C78.3466 34.4923 78.767 34.1023 79.2956 33.825C79.833 33.539 80.4396 33.396 81.1156 33.396C81.861 33.396 82.459 33.5477 82.9096 33.851C83.369 34.1457 83.7026 34.5487 83.9106 35.06C84.1186 35.5713 84.2226 36.1433 84.2226 36.776C84.2226 37.1573 84.162 37.5473 84.0406 37.946C83.9193 38.336 83.733 38.7 83.4816 39.038C83.2303 39.3673 82.901 39.636 82.4936 39.844C82.0863 40.0433 81.5966 40.143 81.0246 40.143ZM81.5706 38.843C82.082 38.843 82.524 38.7563 82.8966 38.583C83.2693 38.4097 83.5553 38.167 83.7546 37.855C83.954 37.543 84.0536 37.1833 84.0536 36.776C84.0536 36.334 83.9496 35.9613 83.7416 35.658C83.5423 35.346 83.2563 35.112 82.8836 34.956C82.5196 34.7913 82.082 34.709 81.5706 34.709C80.8513 34.709 80.2923 34.8997 79.8936 35.281C79.495 35.6537 79.2956 36.152 79.2956 36.776C79.2956 37.192 79.391 37.556 79.5816 37.868C79.7723 38.1713 80.0366 38.4097 80.3746 38.583C80.7213 38.7563 81.12 38.843 81.5706 38.843ZM84.0536 33.539H85.7436V40H84.1706C84.1706 40 84.1576 39.9177 84.1316 39.753C84.1143 39.5797 84.097 39.363 84.0796 39.103C84.0623 38.843 84.0536 38.5873 84.0536 38.336V33.539ZM91.9792 40.156C91.4072 40.156 90.9175 40.0563 90.5102 39.857C90.1115 39.649 89.7865 39.3803 89.5352 39.051C89.2838 38.713 89.0975 38.3447 88.9762 37.946C88.8548 37.5473 88.7942 37.1573 88.7942 36.776C88.7942 36.2993 88.8505 35.8573 88.9632 35.45C89.0845 35.0427 89.2708 34.6873 89.5222 34.384C89.7735 34.072 90.0985 33.8293 90.4972 33.656C90.9045 33.4827 91.3985 33.396 91.9792 33.396C92.6292 33.396 93.2142 33.539 93.7342 33.825C94.2542 34.111 94.6658 34.5097 94.9692 35.021C95.2812 35.5237 95.4372 36.1087 95.4372 36.776C95.4372 37.4607 95.2812 38.0587 94.9692 38.57C94.6572 39.0727 94.2412 39.4627 93.7212 39.74C93.2012 40.0173 92.6205 40.156 91.9792 40.156ZM91.4332 38.843C91.8925 38.843 92.2912 38.7563 92.6292 38.583C92.9758 38.4097 93.2402 38.1713 93.4222 37.868C93.6128 37.556 93.7082 37.192 93.7082 36.776C93.7082 36.152 93.5088 35.6493 93.1102 35.268C92.7202 34.8867 92.1612 34.696 91.4332 34.696C90.9738 34.696 90.5535 34.7783 90.1722 34.943C89.7995 35.1077 89.5048 35.346 89.2882 35.658C89.0715 35.9613 88.9632 36.334 88.9632 36.776C88.9632 37.192 89.0628 37.556 89.2622 37.868C89.4615 38.1713 89.7475 38.4097 90.1202 38.583C90.4928 38.7563 90.9305 38.843 91.4332 38.843ZM87.2732 33.539H88.8852L88.9632 35.255V42.6H87.2732V33.539ZM102.582 40V36.451C102.582 36.0957 102.522 35.801 102.4 35.567C102.279 35.333 102.084 35.1553 101.815 35.034C101.555 34.9127 101.204 34.852 100.762 34.852C100.338 34.852 99.9521 34.9343 99.6054 35.099C99.2587 35.255 98.9771 35.463 98.7604 35.723C98.5437 35.9743 98.4224 36.243 98.3964 36.529L98.3834 35.814C98.4267 35.528 98.5264 35.242 98.6824 34.956C98.8384 34.67 99.0464 34.41 99.3064 34.176C99.5664 33.942 99.8784 33.7557 100.242 33.617C100.615 33.4697 101.031 33.396 101.49 33.396C101.889 33.396 102.257 33.448 102.595 33.552C102.933 33.6473 103.228 33.799 103.479 34.007C103.731 34.215 103.926 34.475 104.064 34.787C104.203 35.0903 104.272 35.45 104.272 35.866V40H102.582ZM96.7974 40V30.939H98.4874V40H96.7974ZM112.168 39.012C111.466 39.012 110.846 38.908 110.309 38.7C109.78 38.4833 109.369 38.167 109.074 37.751C108.779 37.335 108.632 36.8323 108.632 36.243C108.632 35.6623 108.775 35.1597 109.061 34.735C109.347 34.3103 109.754 33.981 110.283 33.747C110.82 33.513 111.449 33.396 112.168 33.396C112.367 33.396 112.558 33.409 112.74 33.435C112.931 33.461 113.117 33.4957 113.299 33.539L116.562 33.552V34.826C116.12 34.8347 115.669 34.7827 115.21 34.67C114.759 34.5487 114.361 34.4187 114.014 34.28L113.975 34.189C114.27 34.3277 114.547 34.501 114.807 34.709C115.067 34.9083 115.275 35.1423 115.431 35.411C115.596 35.671 115.678 35.9743 115.678 36.321C115.678 36.8843 115.535 37.3697 115.249 37.777C114.963 38.1757 114.556 38.4833 114.027 38.7C113.507 38.908 112.887 39.012 112.168 39.012ZM114.339 42.665V42.353C114.339 41.9543 114.209 41.677 113.949 41.521C113.698 41.365 113.351 41.287 112.909 41.287H110.894C110.504 41.287 110.175 41.2567 109.906 41.196C109.646 41.1353 109.438 41.0487 109.282 40.936C109.126 40.8233 109.013 40.689 108.944 40.533C108.875 40.3857 108.84 40.2253 108.84 40.052C108.84 39.7053 108.953 39.4453 109.178 39.272C109.403 39.09 109.707 38.9687 110.088 38.908C110.469 38.8473 110.89 38.8343 111.349 38.869L112.168 39.012C111.622 39.0293 111.215 39.077 110.946 39.155C110.686 39.2243 110.556 39.3673 110.556 39.584C110.556 39.714 110.608 39.818 110.712 39.896C110.816 39.9653 110.963 40 111.154 40H113.273C113.854 40 114.348 40.0607 114.755 40.182C115.171 40.312 115.487 40.5243 115.704 40.819C115.921 41.1223 116.029 41.534 116.029 42.054V42.665H114.339ZM112.168 37.79C112.541 37.79 112.866 37.7293 113.143 37.608C113.429 37.4867 113.65 37.3133 113.806 37.088C113.962 36.854 114.04 36.5767 114.04 36.256C114.04 35.9267 113.962 35.645 113.806 35.411C113.65 35.177 113.433 34.9993 113.156 34.878C112.879 34.748 112.549 34.683 112.168 34.683C111.795 34.683 111.466 34.748 111.18 34.878C110.894 34.9993 110.673 35.177 110.517 35.411C110.361 35.645 110.283 35.9267 110.283 36.256C110.283 36.5767 110.361 36.854 110.517 37.088C110.673 37.3133 110.89 37.4867 111.167 37.608C111.453 37.7293 111.787 37.79 112.168 37.79ZM123.44 37.855H125.078C125.009 38.297 124.823 38.6913 124.519 39.038C124.225 39.3847 123.822 39.6577 123.31 39.857C122.799 40.0563 122.175 40.156 121.438 40.156C120.615 40.156 119.887 40.026 119.254 39.766C118.622 39.4973 118.128 39.1117 117.772 38.609C117.417 38.1063 117.239 37.4997 117.239 36.789C117.239 36.0783 117.413 35.4717 117.759 34.969C118.106 34.4577 118.587 34.0677 119.202 33.799C119.826 33.5303 120.554 33.396 121.386 33.396C122.236 33.396 122.942 33.5303 123.505 33.799C124.069 34.0677 124.485 34.475 124.753 35.021C125.031 35.5583 125.148 36.2473 125.104 37.088H118.942C118.986 37.4173 119.107 37.7163 119.306 37.985C119.514 38.2537 119.792 38.466 120.138 38.622C120.494 38.778 120.914 38.856 121.399 38.856C121.937 38.856 122.383 38.765 122.738 38.583C123.102 38.3923 123.336 38.1497 123.44 37.855ZM121.308 34.683C120.684 34.683 120.177 34.8217 119.787 35.099C119.397 35.3677 119.146 35.7013 119.033 36.1H123.427C123.384 35.6667 123.176 35.3243 122.803 35.073C122.439 34.813 121.941 34.683 121.308 34.683ZM126.362 33.539H128.052V40H126.362V33.539ZM131.055 33.396C131.454 33.396 131.822 33.448 132.16 33.552C132.498 33.656 132.793 33.8163 133.044 34.033C133.295 34.2497 133.49 34.527 133.629 34.865C133.768 35.1943 133.837 35.5887 133.837 36.048V40H132.147V36.347C132.147 35.801 132.013 35.4023 131.744 35.151C131.484 34.891 131.055 34.761 130.457 34.761C130.006 34.761 129.599 34.8477 129.235 35.021C128.871 35.1943 128.576 35.4153 128.351 35.684C128.126 35.944 127.996 36.217 127.961 36.503L127.948 35.84C127.991 35.5367 128.091 35.242 128.247 34.956C128.403 34.67 128.611 34.41 128.871 34.176C129.14 33.9333 129.456 33.7427 129.82 33.604C130.184 33.4653 130.596 33.396 131.055 33.396ZM141.265 37.855H142.903C142.833 38.297 142.647 38.6913 142.344 39.038C142.049 39.3847 141.646 39.6577 141.135 39.857C140.623 40.0563 139.999 40.156 139.263 40.156C138.439 40.156 137.711 40.026 137.079 39.766C136.446 39.4973 135.952 39.1117 135.597 38.609C135.241 38.1063 135.064 37.4997 135.064 36.789C135.064 36.0783 135.237 35.4717 135.584 34.969C135.93 34.4577 136.411 34.0677 137.027 33.799C137.651 33.5303 138.379 33.396 139.211 33.396C140.06 33.396 140.766 33.5303 141.33 33.799C141.893 34.0677 142.309 34.475 142.578 35.021C142.855 35.5583 142.972 36.2473 142.929 37.088H136.767C136.81 37.4173 136.931 37.7163 137.131 37.985C137.339 38.2537 137.616 38.466 137.963 38.622C138.318 38.778 138.738 38.856 139.224 38.856C139.761 38.856 140.207 38.765 140.563 38.583C140.927 38.3923 141.161 38.1497 141.265 37.855ZM139.133 34.683C138.509 34.683 138.002 34.8217 137.612 35.099C137.222 35.3677 136.97 35.7013 136.858 36.1H141.252C141.208 35.6667 141 35.3243 140.628 35.073C140.264 34.813 139.765 34.683 139.133 34.683ZM144.186 33.539H145.876V40H144.186V33.539ZM148.359 34.93C147.874 34.93 147.454 35.0253 147.098 35.216C146.743 35.398 146.457 35.6233 146.24 35.892C146.024 36.1607 145.872 36.4207 145.785 36.672L145.772 35.957C145.781 35.853 145.816 35.7013 145.876 35.502C145.937 35.294 146.028 35.073 146.149 34.839C146.271 34.5963 146.431 34.3667 146.63 34.15C146.83 33.9247 147.072 33.7427 147.358 33.604C147.644 33.4653 147.978 33.396 148.359 33.396V34.93ZM152.55 40.143C151.909 40.143 151.324 40.0043 150.795 39.727C150.275 39.441 149.859 39.0467 149.547 38.544C149.244 38.0327 149.092 37.4433 149.092 36.776C149.092 36.0913 149.248 35.4977 149.56 34.995C149.872 34.4923 150.292 34.1023 150.821 33.825C151.358 33.539 151.965 33.396 152.641 33.396C153.386 33.396 153.984 33.5477 154.435 33.851C154.894 34.1457 155.228 34.5487 155.436 35.06C155.644 35.5713 155.748 36.1433 155.748 36.776C155.748 37.1573 155.687 37.5473 155.566 37.946C155.445 38.336 155.258 38.7 155.007 39.038C154.756 39.3673 154.426 39.636 154.019 39.844C153.612 40.0433 153.122 40.143 152.55 40.143ZM153.096 38.843C153.607 38.843 154.049 38.7563 154.422 38.583C154.795 38.4097 155.081 38.167 155.28 37.855C155.479 37.543 155.579 37.1833 155.579 36.776C155.579 36.334 155.475 35.9613 155.267 35.658C155.068 35.346 154.782 35.112 154.409 34.956C154.045 34.7913 153.607 34.709 153.096 34.709C152.377 34.709 151.818 34.8997 151.419 35.281C151.02 35.6537 150.821 36.152 150.821 36.776C150.821 37.192 150.916 37.556 151.107 37.868C151.298 38.1713 151.562 38.4097 151.9 38.583C152.247 38.7563 152.645 38.843 153.096 38.843ZM155.579 33.539H157.269V40H155.696C155.696 40 155.683 39.9177 155.657 39.753C155.64 39.5797 155.622 39.363 155.605 39.103C155.588 38.843 155.579 38.5873 155.579 38.336V33.539ZM158.344 33.539H163.362V34.852H158.344V33.539ZM160.008 31.771H161.698V40H160.008V31.771ZM168.155 40.156C167.341 40.156 166.621 40.026 165.997 39.766C165.382 39.506 164.901 39.129 164.554 38.635C164.208 38.1323 164.034 37.517 164.034 36.789C164.034 36.061 164.208 35.4457 164.554 34.943C164.901 34.4317 165.382 34.046 165.997 33.786C166.621 33.526 167.341 33.396 168.155 33.396C168.97 33.396 169.681 33.526 170.287 33.786C170.903 34.046 171.384 34.4317 171.73 34.943C172.077 35.4457 172.25 36.061 172.25 36.789C172.25 37.517 172.077 38.1323 171.73 38.635C171.384 39.129 170.903 39.506 170.287 39.766C169.681 40.026 168.97 40.156 168.155 40.156ZM168.155 38.856C168.606 38.856 169.009 38.778 169.364 38.622C169.728 38.4573 170.014 38.2233 170.222 37.92C170.43 37.608 170.534 37.231 170.534 36.789C170.534 36.347 170.43 35.97 170.222 35.658C170.014 35.3373 169.733 35.0947 169.377 34.93C169.022 34.7653 168.615 34.683 168.155 34.683C167.705 34.683 167.297 34.7653 166.933 34.93C166.569 35.0947 166.279 35.333 166.062 35.645C165.854 35.957 165.75 36.3383 165.75 36.789C165.75 37.231 165.854 37.608 166.062 37.92C166.27 38.2233 166.556 38.4573 166.92 38.622C167.284 38.778 167.696 38.856 168.155 38.856ZM173.5 33.539H175.19V40H173.5V33.539ZM177.673 34.93C177.187 34.93 176.767 35.0253 176.412 35.216C176.056 35.398 175.77 35.6233 175.554 35.892C175.337 36.1607 175.185 36.4207 175.099 36.672L175.086 35.957C175.094 35.853 175.129 35.7013 175.19 35.502C175.25 35.294 175.341 35.073 175.463 34.839C175.584 34.5963 175.744 34.3667 175.944 34.15C176.143 33.9247 176.386 33.7427 176.672 33.604C176.958 33.4653 177.291 33.396 177.673 33.396V34.93Z" fill="#D9D9D9"/>
<defs>
<linearGradient id="paint0_linear_45_108" x1="0" y1="17" x2="90" y2="17" gradientUnits="userSpaceOnUse">
<stop stop-color="#F72585"/>
<stop offset="0.255" stop-color="#7209B7"/>
<stop offset="0.55" stop-color="#3A0CA3"/>
<stop offset="0.75" stop-color="#4361EE"/>
<stop offset="1" stop-color="#4CC9F0"/>
</linearGradient>
</defs>
</svg>
