<svg width="306" height="70" viewBox="0 0 306 70" fill="none" xmlns="http://www.w3.org/2000/svg">
<path d="M24.488 2.708V6.704H6.56V12.968H21.248V16.712H6.56V26H1.772V2.708H24.488ZM47.1022 26H42.4222V8.108H47.1022V26ZM42.6742 17.396L42.7102 18.62C42.6622 18.956 42.5422 19.448 42.3502 20.096C42.1582 20.72 41.8582 21.392 41.4502 22.112C41.0662 22.832 40.5622 23.528 39.9382 24.2C39.3142 24.848 38.5462 25.388 37.6342 25.82C36.7222 26.228 35.6422 26.432 34.3942 26.432C33.4102 26.432 32.4382 26.312 31.4782 26.072C30.5422 25.832 29.6902 25.436 28.9222 24.884C28.1542 24.308 27.5422 23.54 27.0862 22.58C26.6302 21.62 26.4022 20.408 26.4022 18.944V8.108H31.0822V18.152C31.0822 19.304 31.2622 20.216 31.6222 20.888C32.0062 21.536 32.5582 21.992 33.2782 22.256C33.9982 22.52 34.8502 22.652 35.8342 22.652C37.1302 22.652 38.2462 22.376 39.1822 21.824C40.1182 21.248 40.8742 20.552 41.4502 19.736C42.0502 18.92 42.4582 18.14 42.6742 17.396ZM51.3631 8.108H56.0431V26H51.3631V8.108ZM64.3591 7.712C65.4631 7.712 66.4831 7.856 67.4191 8.144C68.3551 8.432 69.1711 8.876 69.8671 9.476C70.5631 10.076 71.1031 10.844 71.4871 11.78C71.8711 12.692 72.0631 13.784 72.0631 15.056V26H67.3831V15.884C67.3831 14.372 67.0111 13.268 66.2671 12.572C65.5471 11.852 64.3591 11.492 62.7031 11.492C61.4551 11.492 60.3271 11.732 59.3191 12.212C58.3111 12.692 57.4951 13.304 56.8711 14.048C56.2471 14.768 55.8871 15.524 55.7911 16.316L55.7551 14.48C55.8751 13.64 56.1511 12.824 56.5831 12.032C57.0151 11.24 57.5911 10.52 58.3111 9.872C59.0551 9.2 59.9311 8.672 60.9391 8.288C61.9471 7.904 63.0871 7.712 64.3591 7.712ZM97.5641 18.944C97.4441 20.504 96.9401 21.848 96.0521 22.976C95.1881 24.104 93.9881 24.968 92.4521 25.568C90.9161 26.144 89.0921 26.432 86.9801 26.432C84.7721 26.432 82.7921 26.084 81.0401 25.388C79.3121 24.668 77.9441 23.624 76.9361 22.256C75.9521 20.864 75.4601 19.148 75.4601 17.108C75.4601 15.068 75.9521 13.352 76.9361 11.96C77.9441 10.568 79.3121 9.512 81.0401 8.792C82.7921 8.072 84.7721 7.712 86.9801 7.712C89.0921 7.712 90.9041 8.012 92.4161 8.612C93.9281 9.188 95.1161 10.028 95.9801 11.132C96.8681 12.236 97.3841 13.568 97.5281 15.128H93.2441C92.8361 13.928 92.0801 12.992 90.9761 12.32C89.8721 11.648 88.5401 11.312 86.9801 11.312C85.7321 11.312 84.5921 11.528 83.5601 11.96C82.5521 12.392 81.7361 13.04 81.1121 13.904C80.5121 14.744 80.2121 15.812 80.2121 17.108C80.2121 18.38 80.5121 19.448 81.1121 20.312C81.7121 21.152 82.5281 21.788 83.5601 22.22C84.5921 22.628 85.7321 22.832 86.9801 22.832C88.6601 22.832 90.0281 22.496 91.0841 21.824C92.1641 21.152 92.8961 20.192 93.2801 18.944H97.5641ZM99.7438 8.108H113.64V11.744H99.7438V8.108ZM104.352 3.212H109.032V26H104.352V3.212ZM121.977 0.259999V4.364H116.541V0.259999H121.977ZM116.901 8.108H121.581V26H116.901V8.108ZM136.794 26.432C134.538 26.432 132.546 26.072 130.818 25.352C129.114 24.632 127.782 23.588 126.822 22.22C125.862 20.828 125.382 19.124 125.382 17.108C125.382 15.092 125.862 13.388 126.822 11.996C127.782 10.58 129.114 9.512 130.818 8.792C132.546 8.072 134.538 7.712 136.794 7.712C139.05 7.712 141.018 8.072 142.698 8.792C144.402 9.512 145.734 10.58 146.694 11.996C147.654 13.388 148.134 15.092 148.134 17.108C148.134 19.124 147.654 20.828 146.694 22.22C145.734 23.588 144.402 24.632 142.698 25.352C141.018 26.072 139.05 26.432 136.794 26.432ZM136.794 22.832C138.042 22.832 139.158 22.616 140.142 22.184C141.15 21.728 141.942 21.08 142.518 20.24C143.094 19.376 143.382 18.332 143.382 17.108C143.382 15.884 143.094 14.84 142.518 13.976C141.942 13.088 141.162 12.416 140.178 11.96C139.194 11.504 138.066 11.276 136.794 11.276C135.546 11.276 134.418 11.504 133.41 11.96C132.402 12.416 131.598 13.076 130.998 13.94C130.422 14.804 130.134 15.86 130.134 17.108C130.134 18.332 130.422 19.376 130.998 20.24C131.574 21.08 132.366 21.728 133.374 22.184C134.382 22.616 135.522 22.832 136.794 22.832ZM151.594 8.108H156.274V26H151.594V8.108ZM164.59 7.712C165.694 7.712 166.714 7.856 167.65 8.144C168.586 8.432 169.402 8.876 170.098 9.476C170.794 10.076 171.334 10.844 171.718 11.78C172.102 12.692 172.294 13.784 172.294 15.056V26H167.614V15.884C167.614 14.372 167.242 13.268 166.498 12.572C165.778 11.852 164.59 11.492 162.934 11.492C161.686 11.492 160.558 11.732 159.55 12.212C158.542 12.692 157.726 13.304 157.102 14.048C156.478 14.768 156.118 15.524 156.022 16.316L155.986 14.48C156.106 13.64 156.382 12.824 156.814 12.032C157.246 11.24 157.822 10.52 158.542 9.872C159.286 9.2 160.162 8.672 161.17 8.288C162.178 7.904 163.318 7.712 164.59 7.712ZM199.242 26.468C197.082 26.468 195.126 26.216 193.374 25.712C191.646 25.208 190.146 24.452 188.874 23.444C187.626 22.436 186.666 21.188 185.994 19.7C185.322 18.212 184.986 16.496 184.986 14.552C184.986 12.584 185.334 10.844 186.03 9.332C186.75 7.796 187.758 6.5 189.054 5.444C190.374 4.388 191.934 3.596 193.734 3.068C195.558 2.516 197.574 2.24 199.782 2.24C202.398 2.24 204.654 2.612 206.55 3.356C208.446 4.076 209.934 5.096 211.014 6.416C212.118 7.736 212.742 9.308 212.886 11.132H208.278C207.966 10.172 207.45 9.344 206.73 8.648C206.034 7.928 205.11 7.376 203.958 6.992C202.806 6.584 201.414 6.38 199.782 6.38C197.694 6.38 195.906 6.716 194.418 7.388C192.954 8.06 191.838 9.008 191.07 10.232C190.302 11.456 189.918 12.896 189.918 14.552C189.918 16.16 190.254 17.552 190.926 18.728C191.598 19.88 192.63 20.768 194.022 21.392C195.438 22.016 197.238 22.328 199.422 22.328C201.102 22.328 202.578 22.112 203.85 21.68C205.146 21.224 206.226 20.624 207.09 19.88C207.954 19.112 208.566 18.26 208.926 17.324L210.798 16.64C210.486 19.736 209.31 22.148 207.27 23.876C205.254 25.604 202.578 26.468 199.242 26.468ZM209.574 26C209.574 25.256 209.622 24.404 209.718 23.444C209.814 22.46 209.934 21.476 210.078 20.492C210.222 19.484 210.354 18.56 210.474 17.72H199.818V14.66H213.714V26H209.574ZM218.144 8.108H222.824V26H218.144V8.108ZM229.7 11.96C228.356 11.96 227.192 12.224 226.208 12.752C225.224 13.256 224.432 13.88 223.832 14.624C223.232 15.368 222.812 16.088 222.572 16.784L222.536 14.804C222.56 14.516 222.656 14.096 222.824 13.544C222.992 12.968 223.244 12.356 223.58 11.708C223.916 11.036 224.36 10.4 224.912 9.8C225.464 9.176 226.136 8.672 226.928 8.288C227.72 7.904 228.644 7.712 229.7 7.712V11.96ZM241.306 26.396C239.53 26.396 237.91 26.012 236.446 25.244C235.006 24.452 233.854 23.36 232.99 21.968C232.15 20.552 231.73 18.92 231.73 17.072C231.73 15.176 232.162 13.532 233.026 12.14C233.89 10.748 235.054 9.668 236.518 8.9C238.006 8.108 239.686 7.712 241.558 7.712C243.622 7.712 245.278 8.132 246.526 8.972C247.798 9.788 248.722 10.904 249.298 12.32C249.874 13.736 250.162 15.32 250.162 17.072C250.162 18.128 249.994 19.208 249.658 20.312C249.322 21.392 248.806 22.4 248.11 23.336C247.414 24.248 246.502 24.992 245.374 25.568C244.246 26.12 242.89 26.396 241.306 26.396ZM242.818 22.796C244.234 22.796 245.458 22.556 246.49 22.076C247.522 21.596 248.314 20.924 248.866 20.06C249.418 19.196 249.694 18.2 249.694 17.072C249.694 15.848 249.406 14.816 248.83 13.976C248.278 13.112 247.486 12.464 246.454 12.032C245.446 11.576 244.234 11.348 242.818 11.348C240.826 11.348 239.278 11.876 238.174 12.932C237.07 13.964 236.518 15.344 236.518 17.072C236.518 18.224 236.782 19.232 237.31 20.096C237.838 20.936 238.57 21.596 239.506 22.076C240.466 22.556 241.57 22.796 242.818 22.796ZM249.694 8.108H254.374V26H250.018C250.018 26 249.982 25.772 249.91 25.316C249.862 24.836 249.814 24.236 249.766 23.516C249.718 22.796 249.694 22.088 249.694 21.392V8.108ZM271.641 26.432C270.057 26.432 268.701 26.156 267.573 25.604C266.469 25.028 265.569 24.284 264.873 23.372C264.177 22.436 263.661 21.416 263.325 20.312C262.989 19.208 262.821 18.128 262.821 17.072C262.821 15.752 262.977 14.528 263.289 13.4C263.625 12.272 264.141 11.288 264.837 10.448C265.533 9.584 266.433 8.912 267.537 8.432C268.665 7.952 270.033 7.712 271.641 7.712C273.441 7.712 275.061 8.108 276.501 8.9C277.941 9.692 279.081 10.796 279.921 12.212C280.785 13.604 281.217 15.224 281.217 17.072C281.217 18.968 280.785 20.624 279.921 22.04C279.057 23.432 277.905 24.512 276.465 25.28C275.025 26.048 273.417 26.432 271.641 26.432ZM270.129 22.796C271.401 22.796 272.505 22.556 273.441 22.076C274.401 21.596 275.133 20.936 275.637 20.096C276.165 19.232 276.429 18.224 276.429 17.072C276.429 15.344 275.877 13.952 274.773 12.896C273.693 11.84 272.145 11.312 270.129 11.312C268.857 11.312 267.693 11.54 266.637 11.996C265.605 12.452 264.789 13.112 264.189 13.976C263.589 14.816 263.289 15.848 263.289 17.072C263.289 18.224 263.565 19.232 264.117 20.096C264.669 20.936 265.461 21.596 266.493 22.076C267.525 22.556 268.737 22.796 270.129 22.796ZM258.609 8.108H263.073L263.289 12.86V33.2H258.609V8.108ZM301.004 26V16.172C301.004 15.188 300.836 14.372 300.5 13.724C300.164 13.076 299.624 12.584 298.88 12.248C298.16 11.912 297.188 11.744 295.964 11.744C294.788 11.744 293.72 11.972 292.76 12.428C291.8 12.86 291.02 13.436 290.42 14.156C289.82 14.852 289.484 15.596 289.412 16.388L289.376 14.408C289.496 13.616 289.772 12.824 290.204 12.032C290.636 11.24 291.212 10.52 291.932 9.872C292.652 9.224 293.516 8.708 294.524 8.324C295.556 7.916 296.708 7.712 297.98 7.712C299.084 7.712 300.104 7.856 301.04 8.144C301.976 8.408 302.792 8.828 303.488 9.404C304.184 9.98 304.724 10.7 305.108 11.564C305.492 12.404 305.684 13.4 305.684 14.552V26H301.004ZM284.984 26V0.907999H289.664V26H284.984Z" fill="url(#paint0_linear_1_36)"/>
<path d="M15.164 69.468C13.004 69.468 11.048 69.216 9.296 68.712C7.568 68.208 6.068 67.452 4.796 66.444C3.548 65.436 2.588 64.188 1.916 62.7C1.244 61.212 0.908 59.496 0.908 57.552C0.908 55.584 1.256 53.844 1.952 52.332C2.672 50.796 3.68 49.5 4.976 48.444C6.296 47.388 7.856 46.596 9.656 46.068C11.48 45.516 13.496 45.24 15.704 45.24C18.32 45.24 20.576 45.612 22.472 46.356C24.368 47.076 25.856 48.096 26.936 49.416C28.04 50.736 28.664 52.308 28.808 54.132H24.2C23.888 53.172 23.372 52.344 22.652 51.648C21.956 50.928 21.032 50.376 19.88 49.992C18.728 49.584 17.336 49.38 15.704 49.38C13.616 49.38 11.828 49.716 10.34 50.388C8.876 51.06 7.76 52.008 6.992 53.232C6.224 54.456 5.84 55.896 5.84 57.552C5.84 59.16 6.176 60.552 6.848 61.728C7.52 62.88 8.552 63.768 9.944 64.392C11.36 65.016 13.16 65.328 15.344 65.328C17.024 65.328 18.5 65.112 19.772 64.68C21.068 64.224 22.148 63.624 23.012 62.88C23.876 62.112 24.488 61.26 24.848 60.324L26.72 59.64C26.408 62.736 25.232 65.148 23.192 66.876C21.176 68.604 18.5 69.468 15.164 69.468ZM25.496 69C25.496 68.256 25.544 67.404 25.64 66.444C25.736 65.46 25.856 64.476 26 63.492C26.144 62.484 26.276 61.56 26.396 60.72H15.74V57.66H29.636V69H25.496ZM50.3743 63.06H54.9103C54.7183 64.284 54.2023 65.376 53.3623 66.336C52.5463 67.296 51.4303 68.052 50.0143 68.604C48.5983 69.156 46.8703 69.432 44.8303 69.432C42.5503 69.432 40.5343 69.072 38.7823 68.352C37.0303 67.608 35.6623 66.54 34.6783 65.148C33.6943 63.756 33.2023 62.076 33.2023 60.108C33.2023 58.14 33.6823 56.46 34.6423 55.068C35.6023 53.652 36.9343 52.572 38.6383 51.828C40.3663 51.084 42.3823 50.712 44.6863 50.712C47.0383 50.712 48.9943 51.084 50.5543 51.828C52.1143 52.572 53.2663 53.7 54.0103 55.212C54.7783 56.7 55.1023 58.608 54.9823 60.936H37.9183C38.0383 61.848 38.3743 62.676 38.9263 63.42C39.5023 64.164 40.2703 64.752 41.2303 65.184C42.2143 65.616 43.3783 65.832 44.7223 65.832C46.2103 65.832 47.4463 65.58 48.4303 65.076C49.4383 64.548 50.0863 63.876 50.3743 63.06ZM44.4703 54.276C42.7423 54.276 41.3383 54.66 40.2583 55.428C39.1783 56.172 38.4823 57.096 38.1703 58.2H50.3383C50.2183 57 49.6423 56.052 48.6103 55.356C47.6023 54.636 46.2223 54.276 44.4703 54.276ZM58.4647 51.108H63.1447V69H58.4647V51.108ZM71.4607 50.712C72.5647 50.712 73.5847 50.856 74.5207 51.144C75.4567 51.432 76.2727 51.876 76.9687 52.476C77.6647 53.076 78.2047 53.844 78.5887 54.78C78.9727 55.692 79.1647 56.784 79.1647 58.056V69H74.4847V58.884C74.4847 57.372 74.1127 56.268 73.3687 55.572C72.6487 54.852 71.4607 54.492 69.8047 54.492C68.5567 54.492 67.4287 54.732 66.4207 55.212C65.4127 55.692 64.5967 56.304 63.9727 57.048C63.3487 57.768 62.9887 58.524 62.8927 59.316L62.8567 57.48C62.9767 56.64 63.2527 55.824 63.6847 55.032C64.1167 54.24 64.6927 53.52 65.4127 52.872C66.1567 52.2 67.0327 51.672 68.0407 51.288C69.0487 50.904 70.1887 50.712 71.4607 50.712ZM99.7336 63.06H104.27C104.078 64.284 103.562 65.376 102.722 66.336C101.906 67.296 100.79 68.052 99.3736 68.604C97.9576 69.156 96.2296 69.432 94.1896 69.432C91.9096 69.432 89.8936 69.072 88.1416 68.352C86.3896 67.608 85.0216 66.54 84.0376 65.148C83.0536 63.756 82.5616 62.076 82.5616 60.108C82.5616 58.14 83.0416 56.46 84.0016 55.068C84.9616 53.652 86.2936 52.572 87.9976 51.828C89.7256 51.084 91.7416 50.712 94.0456 50.712C96.3976 50.712 98.3536 51.084 99.9136 51.828C101.474 52.572 102.626 53.7 103.37 55.212C104.138 56.7 104.462 58.608 104.342 60.936H87.2776C87.3976 61.848 87.7336 62.676 88.2856 63.42C88.8616 64.164 89.6296 64.752 90.5896 65.184C91.5736 65.616 92.7376 65.832 94.0816 65.832C95.5696 65.832 96.8056 65.58 97.7896 65.076C98.7976 64.548 99.4456 63.876 99.7336 63.06ZM93.8296 54.276C92.1016 54.276 90.6976 54.66 89.6176 55.428C88.5376 56.172 87.8416 57.096 87.5296 58.2H99.6976C99.5776 57 99.0016 56.052 97.9696 55.356C96.9616 54.636 95.5816 54.276 93.8296 54.276ZM107.824 51.108H112.504V69H107.824V51.108ZM119.38 54.96C118.036 54.96 116.872 55.224 115.888 55.752C114.904 56.256 114.112 56.88 113.512 57.624C112.912 58.368 112.492 59.088 112.252 59.784L112.216 57.804C112.24 57.516 112.336 57.096 112.504 56.544C112.672 55.968 112.924 55.356 113.26 54.708C113.596 54.036 114.04 53.4 114.592 52.8C115.144 52.176 115.816 51.672 116.608 51.288C117.4 50.904 118.324 50.712 119.38 50.712V54.96ZM130.985 69.396C129.209 69.396 127.589 69.012 126.125 68.244C124.685 67.452 123.533 66.36 122.669 64.968C121.829 63.552 121.409 61.92 121.409 60.072C121.409 58.176 121.841 56.532 122.705 55.14C123.569 53.748 124.733 52.668 126.197 51.9C127.685 51.108 129.365 50.712 131.237 50.712C133.301 50.712 134.957 51.132 136.205 51.972C137.477 52.788 138.401 53.904 138.977 55.32C139.553 56.736 139.841 58.32 139.841 60.072C139.841 61.128 139.673 62.208 139.337 63.312C139.001 64.392 138.485 65.4 137.789 66.336C137.093 67.248 136.181 67.992 135.053 68.568C133.925 69.12 132.569 69.396 130.985 69.396ZM132.497 65.796C133.913 65.796 135.137 65.556 136.169 65.076C137.201 64.596 137.993 63.924 138.545 63.06C139.097 62.196 139.373 61.2 139.373 60.072C139.373 58.848 139.085 57.816 138.509 56.976C137.957 56.112 137.165 55.464 136.133 55.032C135.125 54.576 133.913 54.348 132.497 54.348C130.505 54.348 128.957 54.876 127.853 55.932C126.749 56.964 126.197 58.344 126.197 60.072C126.197 61.224 126.461 62.232 126.989 63.096C127.517 63.936 128.249 64.596 129.185 65.076C130.145 65.556 131.249 65.796 132.497 65.796ZM139.373 51.108H144.053V69H139.697C139.697 69 139.661 68.772 139.589 68.316C139.541 67.836 139.493 67.236 139.445 66.516C139.397 65.796 139.373 65.088 139.373 64.392V51.108ZM147.029 51.108H160.925V54.744H147.029V51.108ZM151.637 46.212H156.317V69H151.637V46.212ZM174.2 69.432C171.944 69.432 169.952 69.072 168.224 68.352C166.52 67.632 165.188 66.588 164.228 65.22C163.268 63.828 162.788 62.124 162.788 60.108C162.788 58.092 163.268 56.388 164.228 54.996C165.188 53.58 166.52 52.512 168.224 51.792C169.952 51.072 171.944 50.712 174.2 50.712C176.456 50.712 178.424 51.072 180.104 51.792C181.808 52.512 183.14 53.58 184.1 54.996C185.06 56.388 185.54 58.092 185.54 60.108C185.54 62.124 185.06 63.828 184.1 65.22C183.14 66.588 181.808 67.632 180.104 68.352C178.424 69.072 176.456 69.432 174.2 69.432ZM174.2 65.832C175.448 65.832 176.564 65.616 177.548 65.184C178.556 64.728 179.348 64.08 179.924 63.24C180.5 62.376 180.788 61.332 180.788 60.108C180.788 58.884 180.5 57.84 179.924 56.976C179.348 56.088 178.568 55.416 177.584 54.96C176.6 54.504 175.472 54.276 174.2 54.276C172.952 54.276 171.824 54.504 170.816 54.96C169.808 55.416 169.004 56.076 168.404 56.94C167.828 57.804 167.54 58.86 167.54 60.108C167.54 61.332 167.828 62.376 168.404 63.24C168.98 64.08 169.772 64.728 170.78 65.184C171.788 65.616 172.928 65.832 174.2 65.832ZM189 51.108H193.68V69H189V51.108ZM200.556 54.96C199.212 54.96 198.048 55.224 197.064 55.752C196.08 56.256 195.288 56.88 194.688 57.624C194.088 58.368 193.668 59.088 193.428 59.784L193.392 57.804C193.416 57.516 193.512 57.096 193.68 56.544C193.848 55.968 194.1 55.356 194.436 54.708C194.772 54.036 195.216 53.4 195.768 52.8C196.32 52.176 196.992 51.672 197.784 51.288C198.576 50.904 199.5 50.712 200.556 50.712V54.96Z" fill="url(#paint1_linear_1_36)"/>
<defs>
<linearGradient id="paint0_linear_1_36" x1="-1" y1="35.5" x2="325" y2="35.5" gradientUnits="userSpaceOnUse">
<stop stop-color="#7209B7"/>
<stop offset="1" stop-color="#F72585"/>
</linearGradient>
<linearGradient id="paint1_linear_1_36" x1="-1" y1="59" x2="199" y2="59" gradientUnits="userSpaceOnUse">
<stop stop-color="#3A0CA3"/>
<stop offset="0.5" stop-color="#4361EE"/>
<stop offset="1" stop-color="#4CC9F0"/>
</linearGradient>
</defs>
</svg>
